<svg version="1.1" id="Layer_1" xmlns="http://www.w3.org/2000/svg" xmlns:xlink="http://www.w3.org/1999/xlink" x="0px" y="0px"
	 width="100%" viewBox="0 0 301 295" enable-background="new 0 0 301 295" xml:space="preserve">
<defs>
	<linearGradient id="expGrad" x1="20" y1="20" x2="280" y2="275" gradientUnits="userSpaceOnUse">
		<stop offset="0" stop-color="#F97316"/>
		<stop offset="0.5" stop-color="#F59E0B"/>
		<stop offset="1" stop-color="#FDE047"/>
	</linearGradient>
</defs>
<path fill="none" opacity="1.000000" stroke="none" 
	d="
M178.000000,296.000000 
	C118.666679,296.000000 59.833355,296.000000 1.000024,296.000000 
	C1.000016,197.666702 1.000016,99.333389 1.000008,1.000063 
	C101.333282,1.000042 201.666565,1.000042 301.999878,1.000021 
	C301.999939,99.333275 301.999939,197.666550 301.999969,295.999908 
	C260.833344,296.000000 219.666672,296.000000 178.000000,296.000000 
M63.499828,283.722076 
	C112.660797,283.721832 161.821884,283.768616 210.982605,283.660187 
	C216.946152,283.647034 222.967468,283.167725 228.852020,282.220856 
	C233.783356,281.427368 237.100510,278.304626 238.170853,273.048767 
	C240.305115,262.568573 235.246490,254.922058 224.632156,253.190887 
	C221.693848,252.711655 218.658615,252.685898 215.668060,252.688553 
	C163.841522,252.734558 112.014999,252.817627 60.188480,252.892075 
	C58.230392,252.894897 56.272301,252.892441 54.450729,252.892441 
	C52.952644,248.509583 53.971882,245.599670 57.000450,242.677963 
	C66.353455,233.655060 75.513199,224.424500 84.544472,215.077911 
	C90.770424,208.634583 96.658722,201.864990 102.862358,195.060852 
	C105.593170,197.659134 106.910370,198.883621 108.196114,200.140305 
	C119.276833,210.970474 130.256149,221.906738 141.464417,232.603149 
	C148.212997,239.043533 155.250946,238.822372 161.977249,232.194397 
	C186.666977,207.865631 211.307419,183.486786 235.930038,159.090073 
	C239.457535,155.594940 242.785416,151.898300 247.293488,147.148895 
	C252.170624,152.441895 256.576050,157.222977 261.606445,162.682312 
	C264.165649,142.386246 266.618378,122.934662 269.149292,102.863213 
	C248.866196,106.110901 230.042953,109.124847 210.099655,112.318130 
	C215.537674,117.364861 220.218658,121.709023 224.004669,125.222610 
	C199.810364,150.079880 175.794449,174.753876 150.972672,200.255814 
	C149.809387,198.590668 149.101944,197.210358 148.065826,196.151718 
	C137.693527,185.553925 127.478294,174.789429 116.791656,164.516251 
	C107.650360,155.728622 100.764153,155.861893 91.684059,164.766037 
	C69.315468,186.701172 47.116108,208.809341 24.947485,230.946869 
	C23.686041,232.206528 22.676174,234.335815 22.627438,236.090317 
	C22.345276,246.248611 22.152523,256.421112 22.379368,266.578766 
	C22.651554,278.766602 27.731131,283.662567 40.005451,283.894775 
	C47.499786,284.036530 55.001419,283.792664 63.499828,283.722076 
M81.500000,47.999413 
	C122.655296,47.999638 163.810593,48.002480 204.965881,47.997387 
	C211.457321,47.996582 217.998215,48.458607 224.428467,47.821224 
	C233.730545,46.899174 239.179733,40.989597 238.771362,33.004650 
	C238.370102,25.159084 233.724182,16.821636 223.178268,17.020927 
	C220.685257,17.068039 218.186432,16.707960 215.690430,16.710005 
	C157.707748,16.757532 99.725060,16.809799 41.742455,16.910007 
	C27.250813,16.935053 22.534403,21.464281 22.488850,36.011105 
	C22.311964,92.494751 22.289120,148.978897 22.209095,205.462845 
	C22.208017,206.224640 22.208961,206.986435 22.208961,208.595840 
	C24.053591,207.258453 25.315056,206.554993 26.317389,205.584030 
	C34.928112,197.242905 43.555634,188.916443 51.991116,180.400345 
	C53.072186,179.308960 53.471767,177.166779 53.517948,175.492935 
	C53.691341,169.207626 53.587433,162.914642 53.587433,156.112350 
	C60.548649,156.112350 67.021645,156.356796 73.458939,155.984238 
	C75.819855,155.847610 78.507187,154.743805 80.333199,153.224777 
	C85.573212,148.865723 90.245689,143.819992 95.521187,139.509140 
	C101.575066,134.562241 106.123764,134.342499 112.269081,139.035248 
	C117.800850,143.259460 122.599556,148.432083 127.995506,152.852020 
	C129.852158,154.372849 132.512955,155.656860 134.844879,155.724594 
	C145.333176,156.029236 155.854218,155.475800 166.325684,155.994446 
	C173.119080,156.330933 177.383057,153.121048 180.818146,148.149307 
	C186.910995,139.330887 181.595261,127.093422 171.022552,125.501129 
	C167.741699,125.007027 164.381195,124.860016 161.057297,124.861374 
	C126.901360,124.875298 92.745461,124.952553 58.589546,125.011589 
	C57.000088,125.014336 55.410618,125.011932 53.861969,125.011932 
	C53.861969,99.031776 53.861969,73.766647 53.861969,47.999413 
	C62.918106,47.999413 71.709053,47.999413 81.500000,47.999413 
z"/>
<path fill="url(#expGrad)" opacity="1.000000" stroke="none" 
	d="
M62.999802,283.722046 
	C55.001419,283.792664 47.499786,284.036530 40.005451,283.894775 
	C27.731131,283.662567 22.651554,278.766602 22.379368,266.578766 
	C22.152523,256.421112 22.345276,246.248611 22.627438,236.090317 
	C22.676174,234.335815 23.686041,232.206528 24.947485,230.946869 
	C47.116108,208.809341 69.315468,186.701172 91.684059,164.766037 
	C100.764153,155.861893 107.650360,155.728622 116.791656,164.516251 
	C127.478294,174.789429 137.693527,185.553925 148.065826,196.151718 
	C149.101944,197.210358 149.809387,198.590668 150.972672,200.255814 
	C175.794449,174.753876 199.810364,150.079880 224.004669,125.222610 
	C220.218658,121.709023 215.537674,117.364861 210.099655,112.318130 
	C230.042953,109.124847 248.866196,106.110901 269.149292,102.863213 
	C266.618378,122.934662 264.165649,142.386246 261.606445,162.682312 
	C256.576050,157.222977 252.170624,152.441895 247.293488,147.148895 
	C242.785416,151.898300 239.457535,155.594940 235.930038,159.090073 
	C211.307419,183.486786 186.666977,207.865631 161.977249,232.194397 
	C155.250946,238.822372 148.212997,239.043533 141.464417,232.603149 
	C130.256149,221.906738 119.276833,210.970474 108.196114,200.140305 
	C106.910370,198.883621 105.593170,197.659134 102.862358,195.060852 
	C96.658722,201.864990 90.770424,208.634583 84.544472,215.077911 
	C75.513199,224.424500 66.353455,233.655060 57.000450,242.677963 
	C53.971882,245.599670 52.952644,248.509583 54.450729,252.892441 
	C56.272301,252.892441 58.230392,252.894897 60.188480,252.892075 
	C112.014999,252.817627 163.841522,252.734558 215.668060,252.688553 
	C218.658615,252.685898 221.693848,252.711655 224.632156,253.190887 
	C235.246490,254.922058 240.305115,262.568573 238.170853,273.048767 
	C237.100510,278.304626 233.783356,281.427368 228.852020,282.220856 
	C222.967468,283.167725 216.946152,283.647034 210.982605,283.660187 
	C161.821884,283.768616 112.660797,283.721832 62.999802,283.722046 
z"/>
<path fill="url(#expGrad)" opacity="1.000000" stroke="none" 
	d="
M81.000000,47.999413 
	C71.709053,47.999413 62.918106,47.999413 53.861969,47.999413 
	C53.861969,73.766647 53.861969,99.031776 53.861969,125.011932 
	C55.410618,125.011932 57.000088,125.014336 58.589546,125.011589 
	C92.745461,124.952553 126.901360,124.875298 161.057297,124.861374 
	C164.381195,124.860016 167.741699,125.007027 171.022552,125.501129 
	C181.595261,127.093422 186.910995,139.330887 180.818146,148.149307 
	C177.383057,153.121048 173.119080,156.330933 166.325684,155.994446 
	C155.854218,155.475800 145.333176,156.029236 134.844879,155.724594 
	C132.512955,155.656860 129.852158,154.372849 127.995506,152.852020 
	C122.599556,148.432083 117.800850,143.259460 112.269081,139.035248 
	C106.123764,134.342499 101.575066,134.562241 95.521187,139.509140 
	C90.245689,143.819992 85.573212,148.865723 80.333199,153.224777 
	C78.507187,154.743805 75.819855,155.847610 73.458939,155.984238 
	C67.021645,156.356796 60.548649,156.112350 53.587433,156.112350 
	C53.587433,162.914642 53.691341,169.207626 53.517948,175.492935 
	C53.471767,177.166779 53.072186,179.308960 51.991116,180.400345 
	C43.555634,188.916443 34.928112,197.242905 26.317389,205.584030 
	C25.315056,206.554993 24.053591,207.258453 22.208961,208.595840 
	C22.208961,206.986435 22.208017,206.224640 22.209095,205.462845 
	C22.289120,148.978897 22.311964,92.494751 22.488850,36.011105 
	C22.534403,21.464281 27.250813,16.935053 41.742455,16.910007 
	C99.725060,16.809799 157.707748,16.757532 215.690430,16.710005 
	C218.186432,16.707960 220.685257,17.068039 223.178268,17.020927 
	C233.724182,16.821636 238.370102,25.159084 238.771362,33.004650 
	C239.179733,40.989597 233.730545,46.899174 224.428467,47.821224 
	C217.998215,48.458607 211.457321,47.996582 204.965881,47.997387 
	C163.810593,48.002480 122.655296,47.999638 81.000000,47.999413 
z"/>
</svg>
